<svg width="16" height="16" viewBox="0 0 16 16" fill="none" xmlns="http://www.w3.org/2000/svg">
<path d="M12.1266 11.8335H5.02664C4.36664 11.8335 3.73331 11.5535 3.28664 11.0668C2.83997 10.5802 2.61331 9.92683 2.66665 9.26683L3.21998 2.62683C3.23998 2.42016 3.16664 2.22017 3.02664 2.06683C2.88664 1.9135 2.69331 1.8335 2.48664 1.8335H1.33331C1.05998 1.8335 0.833313 1.60683 0.833313 1.3335C0.833313 1.06016 1.05998 0.833496 1.33331 0.833496H2.49332C2.97998 0.833496 3.43998 1.04016 3.76664 1.39349C3.94664 1.59349 4.07998 1.82683 4.15331 2.08683H12.48C13.1533 2.08683 13.7733 2.3535 14.2266 2.8335C14.6733 3.32016 14.9 3.9535 14.8466 4.62683L14.4866 9.62683C14.4133 10.8468 13.3466 11.8335 12.1266 11.8335ZM4.18665 3.08016L3.66665 9.34682C3.63331 9.73349 3.75998 10.1002 4.01998 10.3868C4.27998 10.6735 4.63998 10.8268 5.02664 10.8268H12.1266C12.82 10.8268 13.4466 10.2402 13.5 9.54683L13.86 4.54683C13.8866 4.1535 13.76 3.78017 13.5 3.50684C13.24 3.22684 12.88 3.07349 12.4866 3.07349H4.18665V3.08016Z" fill="#4E5556"/>
<path d="M10.8333 15.1667C10.1 15.1667 9.5 14.5667 9.5 13.8333C9.5 13.1 10.1 12.5 10.8333 12.5C11.5667 12.5 12.1667 13.1 12.1667 13.8333C12.1667 14.5667 11.5667 15.1667 10.8333 15.1667ZM10.8333 13.5C10.6467 13.5 10.5 13.6467 10.5 13.8333C10.5 14.02 10.6467 14.1667 10.8333 14.1667C11.02 14.1667 11.1667 14.02 11.1667 13.8333C11.1667 13.6467 11.02 13.5 10.8333 13.5Z" fill="#4E5556"/>
<path d="M5.50002 15.1667C4.76669 15.1667 4.16669 14.5667 4.16669 13.8333C4.16669 13.1 4.76669 12.5 5.50002 12.5C6.23335 12.5 6.83335 13.1 6.83335 13.8333C6.83335 14.5667 6.23335 15.1667 5.50002 15.1667ZM5.50002 13.5C5.31335 13.5 5.16669 13.6467 5.16669 13.8333C5.16669 14.02 5.31335 14.1667 5.50002 14.1667C5.68669 14.1667 5.83335 14.02 5.83335 13.8333C5.83335 13.6467 5.68669 13.5 5.50002 13.5Z" fill="#4E5556"/>
<path d="M14 5.8335H6C5.72667 5.8335 5.5 5.60683 5.5 5.3335C5.5 5.06016 5.72667 4.8335 6 4.8335H14C14.2733 4.8335 14.5 5.06016 14.5 5.3335C14.5 5.60683 14.2733 5.8335 14 5.8335Z" fill="#4E5556"/>
</svg>
