<svg width="16" height="16" viewBox="0 0 16 16" fill="none" xmlns="http://www.w3.org/2000/svg">
<path d="M8.00002 8.50016C5.88669 8.50016 4.16669 6.78016 4.16669 4.66683C4.16669 2.5535 5.88669 0.833496 8.00002 0.833496C10.1134 0.833496 11.8334 2.5535 11.8334 4.66683C11.8334 6.78016 10.1134 8.50016 8.00002 8.50016ZM8.00002 1.8335C6.44002 1.8335 5.16669 3.10683 5.16669 4.66683C5.16669 6.22683 6.44002 7.50016 8.00002 7.50016C9.56002 7.50016 10.8334 6.22683 10.8334 4.66683C10.8334 3.10683 9.56002 1.8335 8.00002 1.8335Z" fill="#4E5556"/>
<path d="M13.7268 15.1667C13.4534 15.1667 13.2268 14.94 13.2268 14.6667C13.2268 12.3667 10.8801 10.5 8.0001 10.5C5.1201 10.5 2.77344 12.3667 2.77344 14.6667C2.77344 14.94 2.54677 15.1667 2.27344 15.1667C2.0001 15.1667 1.77344 14.94 1.77344 14.6667C1.77344 11.82 4.56677 9.5 8.0001 9.5C11.4334 9.5 14.2268 11.82 14.2268 14.6667C14.2268 14.94 14.0001 15.1667 13.7268 15.1667Z" fill="#4E5556"/>
</svg>
